Coordinates
version=1
nRows=38
nColumns=12
inDegrees=yes

Units are S.I. units (second, meters, Newtons, ...)
Angles are in degrees

endheader
time	SC_y	SC_z	SC_x	AC_y	AC_z	AC_x	GH_y	GH_z	GH_yy	EL_x	PS_y
       0.0              -44.09          18.59          69.92          65.04         -18.57          16.06         -37.18          23.53         -11.91          29.98          102.6
  0.008152              -44.09          18.59          69.92          65.04         -18.57          16.05         -37.15          23.53         -11.89          29.98          102.6
    0.0163              -44.09          18.59          69.92          65.04         -18.57          16.05         -37.12          23.54         -11.87          29.98          102.6
   0.02446              -44.08           18.6          69.91          65.03         -18.57          16.05         -37.09          23.54         -11.85          29.98          102.6
   0.03261              -44.08           18.6          69.91          65.03         -18.57          16.04         -37.06          23.54         -11.82          29.98          102.6
   0.04076              -44.08           18.6           69.9          65.03         -18.57          16.04         -37.03          23.55          -11.8          29.99          102.6
   0.04891              -44.08          18.61           69.9          65.02         -18.57          16.03         -36.99          23.55         -11.77          29.99          102.6
   0.05706              -44.08          18.61          69.89          65.02         -18.56          16.03         -36.96          23.56         -11.75          29.99          102.6
   0.06521              -44.08          18.62          69.88          65.01         -18.56          16.02         -36.92          23.56         -11.72          29.99          102.6
   0.07337              -44.08          18.62          69.88          65.01         -18.56          16.02         -36.87          23.57         -11.68           30.0          102.6
   0.08152              -44.08          18.63          69.87          65.01         -18.56          16.01         -36.83          23.57         -11.65           30.0          102.6
   0.08967              -44.08          18.63          69.86           65.0         -18.56          16.01         -36.77          23.58         -11.61           30.0          102.6
   0.09782              -44.07          18.64          69.86           65.0         -18.56           16.0         -36.72          23.59         -11.57          30.01          102.6
     0.106              -44.07          18.64          69.85          64.99         -18.56          15.99         -36.66          23.59         -11.53          30.01          102.6
    0.1141              -44.07          18.65          69.84          64.98         -18.55          15.98          -36.6           23.6         -11.48          30.02          102.6
    0.1223              -44.07          18.66          69.83          64.98         -18.55          15.98         -36.53          23.61         -11.43          30.02          102.5
    0.1304              -44.07          18.67          69.82          64.97         -18.55          15.97         -36.45          23.62         -11.38          30.03          102.5
    0.1386              -44.07          18.68          69.81          64.96         -18.55          15.96         -36.37          23.63         -11.32          30.03          102.5
    0.1467              -44.06          18.69          69.79          64.95         -18.54          15.95         -36.28          23.64         -11.25          30.04          102.5
    0.1549              -44.06           18.7          69.78          64.94         -18.54          15.93         -36.19          23.65         -11.18          30.05          102.5
     0.163              -44.06          18.71          69.76          64.93         -18.54          15.92         -36.08          23.67          -11.1          30.05          102.5
    0.1712              -44.05          18.72          69.74          64.92         -18.53          15.91         -35.96          23.68         -11.02          30.06          102.5
    0.1793              -44.05          18.74          69.73          64.91         -18.53          15.89         -35.83           23.7         -10.92          30.07          102.4
    0.1875              -44.05          18.76           69.7          64.89         -18.53          15.87         -35.69          23.72         -10.82          30.08          102.4
    0.1956              -44.04          18.77          69.68          64.88         -18.52          15.85         -35.53          23.74          -10.7          30.09          102.4
    0.2038              -44.04          18.79          69.65          64.86         -18.51          15.83         -35.35          23.76         -10.57           30.1          102.4
    0.2119              -44.03          18.82          69.63          64.84         -18.51          15.81         -35.15          23.78         -10.42          30.12          102.3
    0.2201              -44.03          18.84          69.59          64.82          -18.5          15.78         -34.92          23.81         -10.26          30.13          102.3
    0.2283              -44.02          18.87          69.55          64.79         -18.49          15.75         -34.67          23.84         -10.07          30.15          102.3
    0.2364              -44.01           18.9          69.51          64.76         -18.48          15.71         -34.38          23.88         -9.859          30.17          102.2
    0.2446               -44.0          18.94          69.46          64.73         -18.47          15.67         -34.05          23.92         -9.617           30.2          102.2
    0.2527              -43.99          18.99          69.41          64.69         -18.46          15.63         -33.67          23.97          -9.34          30.22          102.1
    0.2609              -43.98          19.04          69.34          64.65         -18.45          15.57         -33.23          24.02         -9.019          30.25          102.1
     0.269              -43.97          19.09          69.27           64.6         -18.43          15.51         -32.72          24.09         -8.647          30.29          102.0
    0.2772              -43.95          19.16          69.18          64.54         -18.41          15.44         -32.13          24.16         -8.212          30.33          101.9
    0.2853              -43.94          19.24          69.08          64.47         -18.39          15.35         -31.43          24.25         -7.699          30.38          101.8
    0.2935              -43.91          19.34          68.96          64.38         -18.37          15.25          -30.6          24.35         -7.089          30.44          101.7
    0.3016              -43.89          19.45          68.81          64.28         -18.33          15.13          -29.6          24.47         -6.358          30.51          101.5
